<mxfile host="app.diagrams.net" modified="2023-07-25T18:17:57.747Z" agent="Mozilla/5.0 (Windows NT 10.0; Win64; x64) AppleWebKit/537.36 (KHTML, like Gecko) Chrome/115.0.0.0 Safari/537.36" etag="pNRDmEHiBKxb_KUJOVg6" version="21.6.5" type="device">
  <diagram id="n0i-X0B5IhQp-RxhP8OJ" name="Página-3">
    <mxGraphModel dx="1500" dy="739" grid="1" gridSize="10" guides="1" tooltips="1" connect="1" arrows="1" fold="1" page="1" pageScale="1" pageWidth="1169" pageHeight="827" math="0" shadow="0">
      <root>
        <mxCell id="0" />
        <mxCell id="1" parent="0" />
        <mxCell id="YpF42dJTBE5C7rZLP-6P-1" value="Empresa" style="rounded=0;whiteSpace=wrap;html=1;" parent="1" vertex="1">
          <mxGeometry x="220" y="190" width="120" height="60" as="geometry" />
        </mxCell>
        <mxCell id="xAyuzr9ij7VNzcAlwB1_-22" style="edgeStyle=orthogonalEdgeStyle;rounded=0;orthogonalLoop=1;jettySize=auto;html=1;exitX=0.5;exitY=0;exitDx=0;exitDy=0;entryX=0.583;entryY=1.007;entryDx=0;entryDy=0;entryPerimeter=0;endArrow=none;endFill=0;" edge="1" parent="1" source="LptKS4q_2F5SlSsMaW0y-1" target="xAyuzr9ij7VNzcAlwB1_-13">
          <mxGeometry relative="1" as="geometry" />
        </mxCell>
        <mxCell id="LptKS4q_2F5SlSsMaW0y-1" value="Cliente" style="rounded=0;whiteSpace=wrap;html=1;" parent="1" vertex="1">
          <mxGeometry x="640" y="705" width="120" height="60" as="geometry" />
        </mxCell>
        <mxCell id="QExMvQGtCaGC96BTVMo3-3" style="edgeStyle=orthogonalEdgeStyle;rounded=0;orthogonalLoop=1;jettySize=auto;html=1;exitX=0;exitY=0.5;exitDx=0;exitDy=0;endArrow=none;endFill=0;" parent="1" target="LptKS4q_2F5SlSsMaW0y-7" edge="1">
          <mxGeometry relative="1" as="geometry">
            <mxPoint x="460.0000000000002" y="490" as="sourcePoint" />
          </mxGeometry>
        </mxCell>
        <mxCell id="LptKS4q_2F5SlSsMaW0y-11" style="edgeStyle=orthogonalEdgeStyle;rounded=0;orthogonalLoop=1;jettySize=auto;html=1;exitX=0;exitY=0.5;exitDx=0;exitDy=0;entryX=1;entryY=0.5;entryDx=0;entryDy=0;endArrow=none;endFill=0;" parent="1" source="LptKS4q_2F5SlSsMaW0y-5" target="LptKS4q_2F5SlSsMaW0y-1" edge="1">
          <mxGeometry relative="1" as="geometry" />
        </mxCell>
        <mxCell id="LptKS4q_2F5SlSsMaW0y-5" value="CPF" style="ellipse;whiteSpace=wrap;html=1;" parent="1" vertex="1">
          <mxGeometry x="895" y="760" width="120" height="50" as="geometry" />
        </mxCell>
        <mxCell id="LptKS4q_2F5SlSsMaW0y-10" style="edgeStyle=orthogonalEdgeStyle;rounded=0;orthogonalLoop=1;jettySize=auto;html=1;exitX=0;exitY=0.5;exitDx=0;exitDy=0;entryX=1;entryY=0.5;entryDx=0;entryDy=0;endArrow=none;endFill=0;" parent="1" source="LptKS4q_2F5SlSsMaW0y-6" target="LptKS4q_2F5SlSsMaW0y-1" edge="1">
          <mxGeometry relative="1" as="geometry" />
        </mxCell>
        <mxCell id="LptKS4q_2F5SlSsMaW0y-6" value="Nome" style="ellipse;whiteSpace=wrap;html=1;" parent="1" vertex="1">
          <mxGeometry x="895" y="660" width="120" height="50" as="geometry" />
        </mxCell>
        <mxCell id="LptKS4q_2F5SlSsMaW0y-7" value="Veiculo" style="rounded=0;whiteSpace=wrap;html=1;" parent="1" vertex="1">
          <mxGeometry x="220" y="460" width="120" height="60" as="geometry" />
        </mxCell>
        <mxCell id="xAyuzr9ij7VNzcAlwB1_-4" style="edgeStyle=orthogonalEdgeStyle;rounded=0;orthogonalLoop=1;jettySize=auto;html=1;exitX=1;exitY=0.5;exitDx=0;exitDy=0;entryX=0;entryY=0.75;entryDx=0;entryDy=0;endArrow=none;endFill=0;" edge="1" parent="1" source="LptKS4q_2F5SlSsMaW0y-12" target="LptKS4q_2F5SlSsMaW0y-7">
          <mxGeometry relative="1" as="geometry">
            <Array as="points">
              <mxPoint x="220" y="495" />
            </Array>
          </mxGeometry>
        </mxCell>
        <mxCell id="LptKS4q_2F5SlSsMaW0y-12" value="Placa" style="ellipse;whiteSpace=wrap;html=1;" parent="1" vertex="1">
          <mxGeometry x="20" y="470" width="120" height="50" as="geometry" />
        </mxCell>
        <mxCell id="hf-QTZ4NN4tmA-jrHoFI-3" style="edgeStyle=orthogonalEdgeStyle;rounded=0;orthogonalLoop=1;jettySize=auto;html=1;exitX=0.5;exitY=1;exitDx=0;exitDy=0;entryX=0.5;entryY=0;entryDx=0;entryDy=0;endArrow=none;endFill=0;" parent="1" source="hf-QTZ4NN4tmA-jrHoFI-2" target="LptKS4q_2F5SlSsMaW0y-7" edge="1">
          <mxGeometry relative="1" as="geometry" />
        </mxCell>
        <mxCell id="hf-QTZ4NN4tmA-jrHoFI-4" style="edgeStyle=orthogonalEdgeStyle;rounded=0;orthogonalLoop=1;jettySize=auto;html=1;exitX=0.5;exitY=0;exitDx=0;exitDy=0;entryX=0.5;entryY=1;entryDx=0;entryDy=0;endArrow=none;endFill=0;" parent="1" source="hf-QTZ4NN4tmA-jrHoFI-2" target="YpF42dJTBE5C7rZLP-6P-1" edge="1">
          <mxGeometry relative="1" as="geometry" />
        </mxCell>
        <mxCell id="hf-QTZ4NN4tmA-jrHoFI-2" value="Possui" style="rhombus;whiteSpace=wrap;html=1;" parent="1" vertex="1">
          <mxGeometry x="240" y="320" width="80" height="80" as="geometry" />
        </mxCell>
        <mxCell id="hf-QTZ4NN4tmA-jrHoFI-8" value="Construa o Modelo Entidade Relacionamento considerando o seguinte cenário:&#xa;&#xa;&#xa;- uma empresa possui vários veículos&#xa;- um veículo possui marca(gm, ford, fiat), modelo(onix, fiesta, argo) e placa&#xa;- um cliente (cpf, nome) aluga um ou mais veículos" style="text;whiteSpace=wrap;fontSize=14;" parent="1" vertex="1">
          <mxGeometry x="60" y="10" width="600" height="170" as="geometry" />
        </mxCell>
        <mxCell id="xAyuzr9ij7VNzcAlwB1_-5" value="Marca" style="rounded=0;whiteSpace=wrap;html=1;" vertex="1" parent="1">
          <mxGeometry x="90" y="690" width="120" height="60" as="geometry" />
        </mxCell>
        <mxCell id="xAyuzr9ij7VNzcAlwB1_-12" style="edgeStyle=orthogonalEdgeStyle;rounded=0;orthogonalLoop=1;jettySize=auto;html=1;exitX=0.5;exitY=0;exitDx=0;exitDy=0;entryX=0.5;entryY=1;entryDx=0;entryDy=0;endArrow=none;endFill=0;" edge="1" parent="1" source="xAyuzr9ij7VNzcAlwB1_-6" target="xAyuzr9ij7VNzcAlwB1_-10">
          <mxGeometry relative="1" as="geometry" />
        </mxCell>
        <mxCell id="xAyuzr9ij7VNzcAlwB1_-6" value="Modelo" style="rounded=0;whiteSpace=wrap;html=1;" vertex="1" parent="1">
          <mxGeometry x="360" y="690" width="120" height="60" as="geometry" />
        </mxCell>
        <mxCell id="xAyuzr9ij7VNzcAlwB1_-8" style="edgeStyle=orthogonalEdgeStyle;rounded=0;orthogonalLoop=1;jettySize=auto;html=1;entryX=0.5;entryY=1;entryDx=0;entryDy=0;endArrow=none;endFill=0;" edge="1" parent="1" source="xAyuzr9ij7VNzcAlwB1_-7" target="LptKS4q_2F5SlSsMaW0y-7">
          <mxGeometry relative="1" as="geometry">
            <Array as="points">
              <mxPoint x="250" y="620" />
              <mxPoint x="250" y="520" />
            </Array>
          </mxGeometry>
        </mxCell>
        <mxCell id="xAyuzr9ij7VNzcAlwB1_-9" style="edgeStyle=orthogonalEdgeStyle;rounded=0;orthogonalLoop=1;jettySize=auto;html=1;exitX=0.5;exitY=1;exitDx=0;exitDy=0;endArrow=none;endFill=0;" edge="1" parent="1" source="xAyuzr9ij7VNzcAlwB1_-7" target="xAyuzr9ij7VNzcAlwB1_-5">
          <mxGeometry relative="1" as="geometry" />
        </mxCell>
        <mxCell id="xAyuzr9ij7VNzcAlwB1_-7" value="Possui" style="rhombus;whiteSpace=wrap;html=1;" vertex="1" parent="1">
          <mxGeometry x="110" y="580" width="80" height="80" as="geometry" />
        </mxCell>
        <mxCell id="xAyuzr9ij7VNzcAlwB1_-11" style="edgeStyle=orthogonalEdgeStyle;rounded=0;orthogonalLoop=1;jettySize=auto;html=1;entryX=0.5;entryY=1;entryDx=0;entryDy=0;endArrow=none;endFill=0;" edge="1" parent="1" source="xAyuzr9ij7VNzcAlwB1_-10" target="LptKS4q_2F5SlSsMaW0y-7">
          <mxGeometry relative="1" as="geometry">
            <Array as="points">
              <mxPoint x="310" y="620" />
              <mxPoint x="310" y="520" />
            </Array>
          </mxGeometry>
        </mxCell>
        <mxCell id="xAyuzr9ij7VNzcAlwB1_-10" value="Possui" style="rhombus;whiteSpace=wrap;html=1;" vertex="1" parent="1">
          <mxGeometry x="380" y="580" width="80" height="80" as="geometry" />
        </mxCell>
        <mxCell id="xAyuzr9ij7VNzcAlwB1_-13" value="Aluguel" style="rounded=0;whiteSpace=wrap;html=1;" vertex="1" parent="1">
          <mxGeometry x="630" y="460" width="120" height="60" as="geometry" />
        </mxCell>
        <mxCell id="xAyuzr9ij7VNzcAlwB1_-15" style="edgeStyle=orthogonalEdgeStyle;rounded=0;orthogonalLoop=1;jettySize=auto;html=1;exitX=1;exitY=0.5;exitDx=0;exitDy=0;entryX=0;entryY=0.5;entryDx=0;entryDy=0;endArrow=none;endFill=0;" edge="1" parent="1" source="xAyuzr9ij7VNzcAlwB1_-14" target="xAyuzr9ij7VNzcAlwB1_-13">
          <mxGeometry relative="1" as="geometry" />
        </mxCell>
        <mxCell id="xAyuzr9ij7VNzcAlwB1_-14" value="Possui" style="rhombus;whiteSpace=wrap;html=1;" vertex="1" parent="1">
          <mxGeometry x="450" y="450" width="80" height="80" as="geometry" />
        </mxCell>
        <mxCell id="xAyuzr9ij7VNzcAlwB1_-16" value="1" style="text;html=1;align=center;verticalAlign=middle;resizable=0;points=[];autosize=1;strokeColor=none;fillColor=none;" vertex="1" parent="1">
          <mxGeometry x="250" y="250" width="30" height="30" as="geometry" />
        </mxCell>
        <mxCell id="xAyuzr9ij7VNzcAlwB1_-17" value="N" style="text;html=1;align=center;verticalAlign=middle;resizable=0;points=[];autosize=1;strokeColor=none;fillColor=none;" vertex="1" parent="1">
          <mxGeometry x="250" y="430" width="30" height="30" as="geometry" />
        </mxCell>
        <mxCell id="xAyuzr9ij7VNzcAlwB1_-18" value="1" style="text;html=1;align=center;verticalAlign=middle;resizable=0;points=[];autosize=1;strokeColor=none;fillColor=none;" vertex="1" parent="1">
          <mxGeometry x="390" y="660" width="30" height="30" as="geometry" />
        </mxCell>
        <mxCell id="xAyuzr9ij7VNzcAlwB1_-19" value="1" style="text;html=1;align=center;verticalAlign=middle;resizable=0;points=[];autosize=1;strokeColor=none;fillColor=none;" vertex="1" parent="1">
          <mxGeometry x="150" y="660" width="30" height="30" as="geometry" />
        </mxCell>
        <mxCell id="xAyuzr9ij7VNzcAlwB1_-20" value="N" style="text;html=1;align=center;verticalAlign=middle;resizable=0;points=[];autosize=1;strokeColor=none;fillColor=none;" vertex="1" parent="1">
          <mxGeometry x="310" y="520" width="30" height="30" as="geometry" />
        </mxCell>
        <mxCell id="xAyuzr9ij7VNzcAlwB1_-21" value="N" style="text;html=1;align=center;verticalAlign=middle;resizable=0;points=[];autosize=1;strokeColor=none;fillColor=none;" vertex="1" parent="1">
          <mxGeometry x="220" y="520" width="30" height="30" as="geometry" />
        </mxCell>
        <mxCell id="xAyuzr9ij7VNzcAlwB1_-23" value="Possui" style="rhombus;whiteSpace=wrap;html=1;" vertex="1" parent="1">
          <mxGeometry x="660" y="570" width="80" height="80" as="geometry" />
        </mxCell>
        <mxCell id="xAyuzr9ij7VNzcAlwB1_-24" value="1" style="text;html=1;align=center;verticalAlign=middle;resizable=0;points=[];autosize=1;strokeColor=none;fillColor=none;" vertex="1" parent="1">
          <mxGeometry x="700" y="675" width="30" height="30" as="geometry" />
        </mxCell>
        <mxCell id="xAyuzr9ij7VNzcAlwB1_-25" value="N" style="text;html=1;align=center;verticalAlign=middle;resizable=0;points=[];autosize=1;strokeColor=none;fillColor=none;" vertex="1" parent="1">
          <mxGeometry x="600" y="460" width="30" height="30" as="geometry" />
        </mxCell>
        <mxCell id="xAyuzr9ij7VNzcAlwB1_-26" value="1" style="text;html=1;align=center;verticalAlign=middle;resizable=0;points=[];autosize=1;strokeColor=none;fillColor=none;" vertex="1" parent="1">
          <mxGeometry x="340" y="460" width="30" height="30" as="geometry" />
        </mxCell>
        <mxCell id="xAyuzr9ij7VNzcAlwB1_-28" value="N" style="text;html=1;align=center;verticalAlign=middle;resizable=0;points=[];autosize=1;strokeColor=none;fillColor=none;" vertex="1" parent="1">
          <mxGeometry x="700" y="520" width="30" height="30" as="geometry" />
        </mxCell>
      </root>
    </mxGraphModel>
  </diagram>
</mxfile>
